<?xml version="1.0" standalone="no"?>
<!DOCTYPE svg PUBLIC "-//W3C//DTD SVG 20010904//EN"
 "http://www.w3.org/TR/2001/REC-SVG-20010904/DTD/svg10.dtd">
<svg version="1.0" xmlns="http://www.w3.org/2000/svg"
 width="700.000000pt" height="700.000000pt" viewBox="0 0 700.000000 700.000000"
 preserveAspectRatio="xMidYMid meet">
<metadata>
Created by potrace 1.11, written by Peter Selinger 2001-2013
</metadata>
<g transform="translate(0.000000,700.000000) scale(0.100000,-0.100000)"
fill="#000000" stroke="none">
<path d="M2523 6979 c-80 -40 -107 -98 -105 -233 1 -78 -11 -121 -36 -132 -10
-4 -99 -9 -198 -10 -144 -2 -189 -5 -215 -18 -57 -28 -82 -55 -100 -109 l-18
-52 -584 0 -584 0 -59 -30 c-67 -34 -118 -94 -135 -158 -16 -62 -16 -5985 1
-6047 11 -43 47 -101 80 -128 8 -7 38 -24 65 -37 l50 -25 2271 0 c1916 0 2278
2 2317 14 67 20 121 67 154 134 l28 57 0 1500 c0 1411 1 1503 18 1528 9 14 17
28 17 31 0 2 26 44 58 93 52 79 273 428 512 808 47 74 153 241 235 371 83 131
152 242 154 248 2 6 7 13 11 16 4 3 17 25 30 49 49 97 32 226 -40 305 -45 49
-221 163 -289 188 -66 24 -155 17 -222 -17 -56 -29 -89 -74 -283 -382 -104
-164 -192 -301 -195 -305 -3 -4 -6 352 -7 790 l0 797 -23 48 c-29 59 -96 119
-153 137 -34 11 -167 14 -618 16 -316 1 -577 2 -580 3 -3 0 -7 13 -8 27 -3 42
-40 92 -87 120 -42 24 -50 25 -234 27 -241 3 -232 -4 -236 154 -3 119 -13 149
-62 194 -51 47 -71 49 -492 49 -380 0 -398 -1 -438 -21z"/>
</g>
</svg>
