<svg width="512" height="512" viewBox="0 0 512 512" fill="none" xmlns="http://www.w3.org/2000/svg">
<path d="M336.967 493.087V61.038C336.967 50.592 328.499 42.125 318.053 42.125H53.913C43.467 42.125 35 50.593 35 61.038V493.087C35 503.533 43.468 512 53.913 512H318.054C328.499 512 336.967 503.532 336.967 493.087Z" fill="#5077FF"/>
<path d="M380.065 42.124H316.766C327.212 42.124 335.68 50.592 335.68 61.037V493.086C335.68 503.532 327.212 511.999 316.766 511.999H380.065C390.511 511.999 398.979 503.531 398.979 493.086V61.038C398.979 50.592 390.511 42.124 380.065 42.124Z" fill="#4D5DEA"/>
<path d="M65.9131 474.326V79.7981C65.9131 76.0641 68.9401 73.0381 72.6731 73.0381H361.305C365.039 73.0381 368.065 76.0651 368.065 79.7981V474.326C368.065 478.06 365.038 481.086 361.305 481.086H72.6731C68.9391 481.086 65.9131 478.06 65.9131 474.326V474.326Z" fill="#F5F5F5"/>
<path d="M361.305 73.0381H298.006C301.74 73.0381 304.766 76.0651 304.766 79.7981V474.326C304.766 478.06 301.739 481.086 298.006 481.086H361.305C365.039 481.086 368.065 478.059 368.065 474.326V79.7981C368.065 76.0651 365.039 73.0381 361.305 73.0381Z" fill="#EAEAEA"/>
<path d="M257.168 23.538V13.581C257.168 6.081 251.088 0 243.587 0H190.39C182.889 0 176.809 6.081 176.809 13.581V23.538C176.809 26.605 174.322 29.092 171.255 29.092H149.115C141.75 29.092 135.779 35.063 135.779 42.428V73.038H298.198V42.428C298.198 35.063 292.227 29.092 284.862 29.092H262.722C259.655 29.092 257.168 26.605 257.168 23.538V23.538Z" fill="#BCBEBC"/>
<path d="M105.236 182.792V123.254C105.236 116.658 110.584 111.31 117.18 111.31H176.718C183.314 111.31 188.662 116.658 188.662 123.254V182.792C188.662 189.388 183.314 194.736 176.718 194.736H117.18C110.583 194.736 105.236 189.388 105.236 182.792V182.792Z" fill="#44A08D"/>
<path d="M105.236 306.832V247.294C105.236 240.698 110.584 235.35 117.18 235.35H176.718C183.314 235.35 188.662 240.698 188.662 247.294V306.832C188.662 313.428 183.314 318.776 176.718 318.776H117.18C110.583 318.776 105.236 313.428 105.236 306.832V306.832Z" fill="#44A08D"/>
<path d="M105.236 430.871V371.333C105.236 364.737 110.584 359.389 117.18 359.389H176.718C183.314 359.389 188.662 364.737 188.662 371.333V430.871C188.662 437.467 183.314 442.815 176.718 442.815H117.18C110.583 442.815 105.236 437.468 105.236 430.871V430.871Z" fill="#44A08D"/>
<path d="M141.909 174.344C141.9 174.344 141.892 174.344 141.883 174.344C138.472 174.336 135.237 172.684 133.228 169.927L124.206 157.537C121.694 154.087 122.454 149.254 125.904 146.742C129.354 144.231 134.187 144.991 136.698 148.44L141.929 155.625L157.224 134.845C159.754 131.408 164.59 130.674 168.026 133.203C171.463 135.732 172.198 140.569 169.668 144.006L150.556 169.971C148.541 172.71 145.309 174.344 141.909 174.344V174.344Z" fill="#FCFCFC"/>
<path d="M141.908 301.083C141.898 301.083 141.889 301.083 141.88 301.083C138.469 301.074 135.234 299.423 133.226 296.664L124.206 284.276C121.694 280.826 122.454 275.993 125.904 273.481C129.354 270.97 134.187 271.73 136.698 275.179L141.929 282.364L157.224 261.584C159.754 258.148 164.59 257.413 168.026 259.942C171.463 262.471 172.198 267.308 169.668 270.745L150.556 296.71C148.541 299.451 145.309 301.083 141.908 301.083Z" fill="#FCFCFC"/>
<path d="M141.908 422.425C141.899 422.425 141.89 422.425 141.882 422.424C138.472 422.416 135.236 420.765 133.228 418.009L124.206 405.617C121.694 402.167 122.455 397.335 125.905 394.823C129.357 392.311 134.188 393.073 136.699 396.522L141.929 403.706L157.225 382.926C159.755 379.49 164.591 378.755 168.027 381.284C171.464 383.813 172.199 388.65 169.669 392.087L150.557 418.052C148.54 420.791 145.309 422.425 141.908 422.425V422.425Z" fill="#FCFCFC"/>
<path d="M322.65 144.605H227.135C222.868 144.605 219.409 141.146 219.409 136.879C219.409 132.612 222.868 129.153 227.135 129.153H322.65C326.917 129.153 330.376 132.612 330.376 136.879C330.376 141.146 326.917 144.605 322.65 144.605Z" fill="#4A443C"/>
<path d="M274.893 176.892H227.136C222.869 176.892 219.41 173.433 219.41 169.166C219.41 164.899 222.869 161.44 227.136 161.44H274.893C279.16 161.44 282.619 164.899 282.619 169.166C282.619 173.433 279.16 176.892 274.893 176.892Z" fill="#4A443C"/>
<path d="M291.222 268.645H227.136C222.869 268.645 219.41 265.186 219.41 260.919C219.41 256.652 222.869 253.193 227.136 253.193H291.222C295.489 253.193 298.948 256.652 298.948 260.919C298.948 265.186 295.489 268.645 291.222 268.645Z" fill="#4A443C"/>
<path d="M274.893 300.932H227.136C222.869 300.932 219.41 297.473 219.41 293.206C219.41 288.939 222.869 285.48 227.136 285.48H274.893C279.16 285.48 282.619 288.939 282.619 293.206C282.619 297.473 279.16 300.932 274.893 300.932Z" fill="#4A443C"/>
<path d="M446.868 201.718L439.282 191.724L410.897 173.749L399.986 172.03L254.641 401.703C251.134 407.241 248.561 413.318 247.025 419.69C264.709 419.909 280.76 430.073 288.519 445.966C293.623 441.853 298.016 436.929 301.523 431.391L446.868 201.718Z" fill="#FABC2B"/>
<path d="M467.388 130.992L455.123 123.225C445.562 117.17 432.902 120.015 426.85 129.578L415.603 147.351L419.191 154.584L453.321 176.197L462.486 177.039L473.74 159.255C479.788 149.697 476.945 137.044 467.388 130.992V130.992Z" fill="#EC3F52"/>
<path d="M400.002 171.964L415.627 147.286L462.517 176.974L446.893 201.653L400.002 171.964Z" fill="#BCBEBC"/>
<path d="M288.519 445.967L247.134 479.317C241.296 484.022 232.814 478.651 234.571 471.362L247.025 419.691C264.709 419.909 280.761 430.074 288.519 445.967Z" fill="#DEBAA2"/>
<path d="M277.664 431.649L430.023 191.051L416.968 182.784L264.609 423.382C269.389 425.396 273.799 428.189 277.664 431.649Z" fill="#F4B056"/>
<path d="M237 461.5L255 473C253.494 474.215 247.671 478.913 246 480C244.512 480.76 243.645 481.01 242 481C240.103 480.875 238.926 480.269 238 479.75C236.595 478.819 236.142 478.937 234.5 475C234.316 473.573 234.307 472.918 234.5 472L237 461.5Z" fill="#4A443C" stroke="#4A443C" stroke-width="0.2"/>
</svg>
